<svg width="152" height="900" viewBox="0 0 152 900" fill="none" xmlns="http://www.w3.org/2000/svg">
<line x1="76" y1="13" x2="76" y2="886" stroke="url(#paint0_linear_930_1236)" stroke-opacity="0.7" stroke-width="4" stroke-linecap="round"/>
<circle cx="76" cy="136" r="12" fill="white"/>
<circle cx="76" cy="387" r="12" fill="white"/>
<circle cx="76" cy="512" r="12" fill="white" fill-opacity="0.05"/>
<circle cx="76" cy="763" r="12" fill="white"/>
<circle cx="76" cy="888" r="12" fill="white"/>
<circle cx="76" cy="12" r="12" fill="white"/>
<path d="M0 12.5L5 15.3868L5 9.61325L0 12.5ZM4.36364 13L7.27273 13L7.27273 12L4.36364 12L4.36364 13ZM10.1818 13L13.0909 13L13.0909 12L10.1818 12L10.1818 13ZM16 13L18.9091 13L18.9091 12L16 12L16 13ZM21.8182 13L24.7273 13L24.7273 12L21.8182 12L21.8182 13ZM27.6364 13L30.5455 13L30.5455 12L27.6364 12L27.6364 13ZM33.4546 13L36.3636 13L36.3636 12L33.4546 12L33.4546 13ZM39.2727 13L42.1818 13L42.1818 12L39.2727 12L39.2727 13ZM45.0909 13L48 13L48 12L45.0909 12L45.0909 13ZM50.9091 13L53.8182 13L53.8182 12L50.9091 12L50.9091 13ZM56.7273 13L59.6364 13L59.6364 12L56.7273 12L56.7273 13ZM62.5455 13L64 13L64 12L62.5455 12L62.5455 13Z" fill="url(#paint1_linear_930_1236)" fill-opacity="0.7"/>
<path d="M0 387L5 389.887L5 384.113L0 387ZM4.36364 387.5L7.27273 387.5L7.27273 386.5L4.36364 386.5L4.36364 387.5ZM10.1818 387.5L13.0909 387.5L13.0909 386.5L10.1818 386.5L10.1818 387.5ZM16 387.5L18.9091 387.5L18.9091 386.5L16 386.5L16 387.5ZM21.8182 387.5L24.7273 387.5L24.7273 386.5L21.8182 386.5L21.8182 387.5ZM27.6364 387.5L30.5455 387.5L30.5455 386.5L27.6364 386.5L27.6364 387.5ZM33.4546 387.5L36.3636 387.5L36.3636 386.5L33.4546 386.5L33.4546 387.5ZM39.2727 387.5L42.1818 387.5L42.1818 386.5L39.2727 386.5L39.2727 387.5ZM45.0909 387.5L48 387.5L48 386.5L45.0909 386.5L45.0909 387.5ZM50.9091 387.5L53.8182 387.5L53.8182 386.5L50.9091 386.5L50.9091 387.5ZM56.7273 387.5L59.6364 387.5L59.6364 386.5L56.7273 386.5L56.7273 387.5ZM62.5455 387.5L64 387.5L64 386.5L62.5455 386.5L62.5455 387.5Z" fill="url(#paint2_linear_930_1236)" fill-opacity="0.7"/>
<path d="M0 763L5 765.887L5 760.113L0 763ZM4.36364 763.5L7.27273 763.5L7.27273 762.5L4.36364 762.5L4.36364 763.5ZM10.1818 763.5L13.0909 763.5L13.0909 762.5L10.1818 762.5L10.1818 763.5ZM16 763.5L18.9091 763.5L18.9091 762.5L16 762.5L16 763.5ZM21.8182 763.5L24.7273 763.5L24.7273 762.5L21.8182 762.5L21.8182 763.5ZM27.6364 763.5L30.5455 763.5L30.5455 762.5L27.6364 762.5L27.6364 763.5ZM33.4546 763.5L36.3636 763.5L36.3636 762.5L33.4546 762.5L33.4546 763.5ZM39.2727 763.5L42.1818 763.5L42.1818 762.5L39.2727 762.5L39.2727 763.5ZM45.0909 763.5L48 763.5L48 762.5L45.0909 762.5L45.0909 763.5ZM50.9091 763.5L53.8182 763.5L53.8182 762.5L50.9091 762.5L50.9091 763.5ZM56.7273 763.5L59.6364 763.5L59.6364 762.5L56.7273 762.5L56.7273 763.5ZM62.5455 763.5L64 763.5L64 762.5L62.5455 762.5L62.5455 763.5Z" fill="url(#paint3_linear_930_1236)" fill-opacity="0.7"/>
<path d="M152 136L147 133.113L147 138.887L152 136ZM147.636 135.5L144.727 135.5L144.727 136.5L147.636 136.5L147.636 135.5ZM141.818 135.5L138.909 135.5L138.909 136.5L141.818 136.5L141.818 135.5ZM136 135.5L133.091 135.5L133.091 136.5L136 136.5L136 135.5ZM130.182 135.5L127.273 135.5L127.273 136.5L130.182 136.5L130.182 135.5ZM124.364 135.5L121.455 135.5L121.455 136.5L124.364 136.5L124.364 135.5ZM118.545 135.5L115.636 135.5L115.636 136.5L118.545 136.5L118.545 135.5ZM112.727 135.5L109.818 135.5L109.818 136.5L112.727 136.5L112.727 135.5ZM106.909 135.5L104 135.5L104 136.5L106.909 136.5L106.909 135.5ZM101.091 135.5L98.1818 135.5L98.1818 136.5L101.091 136.5L101.091 135.5ZM95.2727 135.5L92.3636 135.5L92.3636 136.5L95.2727 136.5L95.2727 135.5ZM89.4545 135.5L88 135.5L88 136.5L89.4545 136.5L89.4545 135.5Z" fill="url(#paint4_linear_930_1236)" fill-opacity="0.7"/>
<path d="M146 512L141 509.113L141 514.887L146 512ZM141.636 511.5L138.727 511.5L138.727 512.5L141.636 512.5L141.636 511.5ZM135.818 511.5L132.909 511.5L132.909 512.5L135.818 512.5L135.818 511.5ZM130 511.5L127.091 511.5L127.091 512.5L130 512.5L130 511.5ZM124.182 511.5L121.273 511.5L121.273 512.5L124.182 512.5L124.182 511.5ZM118.364 511.5L115.455 511.5L115.455 512.5L118.364 512.5L118.364 511.5ZM112.545 511.5L109.636 511.5L109.636 512.5L112.545 512.5L112.545 511.5ZM106.727 511.5L103.818 511.5L103.818 512.5L106.727 512.5L106.727 511.5ZM100.909 511.5L98 511.5L98 512.5L100.909 512.5L100.909 511.5ZM95.0909 511.5L92.1818 511.5L92.1818 512.5L95.0909 512.5L95.0909 511.5ZM89.2727 511.5L86.3636 511.5L86.3636 512.5L89.2727 512.5L89.2727 511.5ZM83.4545 511.5L82 511.5L82 512.5L83.4545 512.5L83.4545 511.5Z" fill="url(#paint5_linear_930_1236)" fill-opacity="0.7"/>
<path d="M146 888L141 885.113L141 890.887L146 888ZM141.636 887.5L138.727 887.5L138.727 888.5L141.636 888.5L141.636 887.5ZM135.818 887.5L132.909 887.5L132.909 888.5L135.818 888.5L135.818 887.5ZM130 887.5L127.091 887.5L127.091 888.5L130 888.5L130 887.5ZM124.182 887.5L121.273 887.5L121.273 888.5L124.182 888.5L124.182 887.5ZM118.364 887.5L115.455 887.5L115.455 888.5L118.364 888.5L118.364 887.5ZM112.545 887.5L109.636 887.5L109.636 888.5L112.545 888.5L112.545 887.5ZM106.727 887.5L103.818 887.5L103.818 888.5L106.727 888.5L106.727 887.5ZM100.909 887.5L98 887.5L98 888.5L100.909 888.5L100.909 887.5ZM95.0909 887.5L92.1818 887.5L92.1818 888.5L95.0909 888.5L95.0909 887.5ZM89.2727 887.5L86.3636 887.5L86.3636 888.5L89.2727 888.5L89.2727 887.5ZM83.4545 887.5L82 887.5L82 888.5L83.4545 888.5L83.4545 887.5Z" fill="url(#paint6_linear_930_1236)" fill-opacity="0.7"/>
<defs>
<linearGradient id="paint0_linear_930_1236" x1="53.5" y1="10.9998" x2="51.955" y2="11.0739" gradientUnits="userSpaceOnUse">
<stop stop-color="#4334B6"/>
<stop offset="0.996263" stop-color="#F6393D"/>
</linearGradient>
<linearGradient id="paint1_linear_930_1236" x1="7.04" y1="12.5941" x2="7.05137" y2="13.9704" gradientUnits="userSpaceOnUse">
<stop stop-color="#15BFFD"/>
<stop offset="1" stop-color="#9C37FD"/>
</linearGradient>
<linearGradient id="paint2_linear_930_1236" x1="7.04" y1="387.094" x2="7.05137" y2="388.47" gradientUnits="userSpaceOnUse">
<stop stop-color="#15BFFD"/>
<stop offset="1" stop-color="#9C37FD"/>
</linearGradient>
<linearGradient id="paint3_linear_930_1236" x1="7.04" y1="763.094" x2="7.05137" y2="764.47" gradientUnits="userSpaceOnUse">
<stop stop-color="#15BFFD"/>
<stop offset="1" stop-color="#9C37FD"/>
</linearGradient>
<linearGradient id="paint4_linear_930_1236" x1="144.96" y1="135.906" x2="144.949" y2="134.53" gradientUnits="userSpaceOnUse">
<stop stop-color="#15BFFD"/>
<stop offset="1" stop-color="#9C37FD"/>
</linearGradient>
<linearGradient id="paint5_linear_930_1236" x1="138.96" y1="511.906" x2="138.949" y2="510.53" gradientUnits="userSpaceOnUse">
<stop stop-color="#15BFFD"/>
<stop offset="1" stop-color="#9C37FD"/>
</linearGradient>
<linearGradient id="paint6_linear_930_1236" x1="138.96" y1="887.906" x2="138.949" y2="886.53" gradientUnits="userSpaceOnUse">
<stop stop-color="#15BFFD"/>
<stop offset="1" stop-color="#9C37FD"/>
</linearGradient>
</defs>
</svg>
