<svg width="88" height="24" viewBox="0 0 88 24" fill="none" xmlns="http://www.w3.org/2000/svg">
<circle cx="76" cy="12" r="12" fill="white"/>
<path d="M0 12L5 14.8868L5 9.11325L0 12ZM4.36364 12.5L7.27273 12.5L7.27273 11.5L4.36364 11.5L4.36364 12.5ZM10.1818 12.5L13.0909 12.5L13.0909 11.5L10.1818 11.5L10.1818 12.5ZM16 12.5L18.9091 12.5L18.9091 11.5L16 11.5L16 12.5ZM21.8182 12.5L24.7273 12.5L24.7273 11.5L21.8182 11.5L21.8182 12.5ZM27.6364 12.5L30.5455 12.5L30.5455 11.5L27.6364 11.5L27.6364 12.5ZM33.4546 12.5L36.3636 12.5L36.3636 11.5L33.4546 11.5L33.4546 12.5ZM39.2727 12.5L42.1818 12.5L42.1818 11.5L39.2727 11.5L39.2727 12.5ZM45.0909 12.5L48 12.5L48 11.5L45.0909 11.5L45.0909 12.5ZM50.9091 12.5L53.8182 12.5L53.8182 11.5L50.9091 11.5L50.9091 12.5ZM56.7273 12.5L59.6364 12.5L59.6364 11.5L56.7273 11.5L56.7273 12.5ZM62.5455 12.5L64 12.5L64 11.5L62.5455 11.5L62.5455 12.5Z" fill="url(#paint0_linear_930_1234)" fill-opacity="0.7"/>
<defs>
<linearGradient id="paint0_linear_930_1234" x1="7.04" y1="12.0941" x2="7.05137" y2="13.4704" gradientUnits="userSpaceOnUse">
<stop stop-color="#15BFFD"/>
<stop offset="1" stop-color="#9C37FD"/>
</linearGradient>
</defs>
</svg>
