<svg width="14" height="14" viewBox="0 0 14 14" fill="none" xmlns="http://www.w3.org/2000/svg">
<path d="M5.56641 1.6377L6.21094 0.993164C6.50391 0.729492 6.94336 0.729492 7.20703 0.993164L12.9199 6.67676C13.1836 6.96973 13.1836 7.40918 12.9199 7.67285L7.20703 13.3857C6.94336 13.6494 6.50391 13.6494 6.21094 13.3857L5.56641 12.7412C5.30273 12.4482 5.30273 12.0088 5.56641 11.7158L9.11133 8.34668H0.703125C0.292969 8.34668 0 8.05371 0 7.64355V6.70605C0 6.3252 0.292969 6.00293 0.703125 6.00293H9.11133L5.56641 2.66309C5.30273 2.37012 5.27344 1.93066 5.56641 1.6377Z" fill="white"/>
</svg>
