<svg width="26" height="25" viewBox="0 0 26 25" fill="none" xmlns="http://www.w3.org/2000/svg">
<path d="M14.5756 0.363647V2.01659C16.2786 2.01659 17.8741 2.42983 19.362 3.2563C20.7782 4.06556 21.9075 5.1503 22.7501 6.51054C23.6105 7.93965 24.0408 9.47207 24.0408 11.1078H25.7617C25.7617 9.16214 25.2508 7.35423 24.229 5.68407C23.243 4.06556 21.9075 2.7828 20.2224 1.8358C18.4836 0.854366 16.6013 0.363647 14.5756 0.363647ZM5.67507 2.84307C5.19106 2.84307 4.76979 2.98942 4.41126 3.28213L1.64161 5.99399L1.72228 5.94234C1.27412 6.30392 0.978331 6.75159 0.834919 7.28536C0.709433 7.81912 0.745286 8.33567 0.942478 8.835C1.44442 10.178 2.11666 11.5555 2.95921 12.9674C4.14236 14.913 5.54959 16.6607 7.1809 18.2103C9.79817 20.7414 13.0518 22.7387 16.9419 24.2022H16.9688C17.4886 24.3744 18.0085 24.4088 18.5284 24.3055C19.0662 24.2022 19.5412 23.9784 19.9535 23.634L22.6694 21.0255C23.0279 20.6811 23.2072 20.2593 23.2072 19.7599C23.2072 19.2434 23.0279 18.8129 22.6694 18.4686L19.1468 15.0594C18.7883 14.715 18.3401 14.5428 17.8024 14.5428C17.2646 14.5428 16.8164 14.715 16.4579 15.0594L14.7638 16.7123C13.4014 16.0925 12.2182 15.3263 11.2144 14.4137C10.2105 13.4839 9.41275 12.3561 8.82118 11.0303L10.5421 9.37737C10.9186 8.99857 11.1068 8.55089 11.1068 8.03435C11.1068 7.50059 10.8917 7.07013 10.4615 6.74299L10.5421 6.82047L6.93889 3.28213C6.58036 2.98942 6.15909 2.84307 5.67507 2.84307ZM14.5756 3.66954V5.32248C15.6691 5.32248 16.673 5.58076 17.5872 6.0973C18.5194 6.61385 19.2544 7.31979 19.7922 8.21514C20.33 9.09327 20.5989 10.0575 20.5989 11.1078H22.3198C22.3198 9.76478 21.9703 8.51646 21.2711 7.36284C20.572 6.24366 19.6398 5.34831 18.4746 4.6768C17.2735 4.00529 15.9738 3.66954 14.5756 3.66954ZM5.67507 4.49601C5.72885 4.49601 5.7916 4.52184 5.8633 4.57349L9.38586 8.03435C9.40379 8.10322 9.38586 8.16349 9.33208 8.21514L6.77755 10.6429L6.96578 11.1595L7.31535 11.8826C7.60217 12.468 7.93381 13.0362 8.31027 13.5872C8.83014 14.362 9.40379 15.0249 10.0312 15.5759C10.8738 16.368 11.8866 17.0911 13.0698 17.7454C13.6613 18.0726 14.1633 18.3136 14.5756 18.4686L15.1134 18.701L17.7217 16.1958C17.7575 16.1613 17.7844 16.1441 17.8024 16.1441C17.8203 16.1441 17.8472 16.1613 17.883 16.1958L21.5131 19.6825C21.549 19.7169 21.5669 19.7427 21.5669 19.7599C21.5669 19.7599 21.549 19.7772 21.5131 19.8116L18.8242 22.3685C18.4298 22.6956 17.9995 22.7817 17.5335 22.6268C13.8764 21.2665 10.8289 19.407 8.39094 17.0481C6.88511 15.6017 5.56752 13.9574 4.43815 12.1151C3.63145 10.7893 3.00403 9.5065 2.55586 8.2668V8.24097C2.48416 8.086 2.47519 7.90521 2.52897 7.6986C2.58275 7.47476 2.68135 7.30258 2.82476 7.18205L5.48685 4.57349C5.54063 4.52184 5.60337 4.49601 5.67507 4.49601ZM14.5756 6.97543V8.62838C15.2926 8.62838 15.9021 8.86943 16.4041 9.35154C16.906 9.83365 17.157 10.4191 17.157 11.1078H18.8779C18.8779 10.3674 18.6808 9.67869 18.2864 9.04161C17.9099 8.40454 17.39 7.90521 16.7268 7.54363C16.0635 7.16483 15.3464 6.97543 14.5756 6.97543Z" fill="#0A0628"/>
</svg>
