<svg width="88" height="24" viewBox="0 0 88 24" fill="none" xmlns="http://www.w3.org/2000/svg">
<circle cx="12" cy="12" r="12" fill="white"/>
<path d="M88 12L83 9.11325L83 14.8868L88 12ZM83.6364 11.5L80.7273 11.5L80.7273 12.5L83.6364 12.5L83.6364 11.5ZM77.8182 11.5L74.9091 11.5L74.9091 12.5L77.8182 12.5L77.8182 11.5ZM72 11.5L69.0909 11.5L69.0909 12.5L72 12.5L72 11.5ZM66.1818 11.5L63.2727 11.5L63.2727 12.5L66.1818 12.5L66.1818 11.5ZM60.3636 11.5L57.4545 11.5L57.4545 12.5L60.3636 12.5L60.3636 11.5ZM54.5454 11.5L51.6364 11.5L51.6364 12.5L54.5454 12.5L54.5454 11.5ZM48.7273 11.5L45.8182 11.5L45.8182 12.5L48.7273 12.5L48.7273 11.5ZM42.9091 11.5L40 11.5L40 12.5L42.9091 12.5L42.9091 11.5ZM37.0909 11.5L34.1818 11.5L34.1818 12.5L37.0909 12.5L37.0909 11.5ZM31.2727 11.5L28.3636 11.5L28.3636 12.5L31.2727 12.5L31.2727 11.5ZM25.4545 11.5L24 11.5L24 12.5L25.4545 12.5L25.4545 11.5Z" fill="url(#paint0_linear_930_1235)" fill-opacity="0.7"/>
<defs>
<linearGradient id="paint0_linear_930_1235" x1="80.96" y1="11.9059" x2="80.9486" y2="10.5296" gradientUnits="userSpaceOnUse">
<stop stop-color="#15BFFD"/>
<stop offset="1" stop-color="#9C37FD"/>
</linearGradient>
</defs>
</svg>
