<svg width="90" height="100" viewBox="0 0 90 100" fill="none" xmlns="http://www.w3.org/2000/svg">
<g filter="url(#filter0_d_265_20927)">
<path d="M35.7251 29.2917L31.9918 23.1084C30.5918 20.8334 27.821 19.55 25.2251 20.3084C21.3168 21.475 19.8001 25.8792 21.7543 29.1167L25.6043 35.4459C26.0418 36.1167 26.946 36.35 27.6168 35.9417L35.2293 31.3042C35.9293 30.8667 36.1626 29.9625 35.7251 29.2917Z" fill="white"/>
</g>
<g filter="url(#filter1_d_265_20927)">
<path d="M67.5757 56.4454L59.3799 45.362C56.5216 41.512 51.5632 39.7037 46.8966 40.9579C46.8966 40.9287 46.8674 40.9287 46.8674 40.8995L42.0257 32.937C41.1507 31.5662 39.3424 31.1287 37.9716 31.9745L27.8507 38.1287C26.4507 38.9454 26.0132 40.7829 26.8591 42.1829L31.6716 50.1454C31.6716 50.1454 31.6716 50.1745 31.7007 50.1745C28.4632 53.762 27.7632 58.9829 29.9216 63.3287L35.9882 75.6954C37.8549 79.5162 42.2591 80.9745 45.9924 79.0495C46.2841 78.9037 46.3716 78.5537 46.1966 78.262L41.6466 70.737C41.0049 69.687 41.3257 68.3454 42.3757 67.6745C43.4257 67.062 44.7674 67.3829 45.4382 68.4037L50.0174 75.9287C50.1924 76.1912 50.5424 76.2787 50.8049 76.1329L53.6049 74.4412C53.8674 74.2662 53.9549 73.9162 53.8091 73.6537L49.2299 66.1287C48.6174 65.0787 48.9382 63.737 49.9591 63.0662C51.0382 62.4537 52.3799 62.7745 53.0216 63.7954L57.6007 71.3204C57.7757 71.5829 58.1257 71.6704 58.3882 71.5245L61.1882 69.8329C61.4507 69.6579 61.5382 69.3079 61.3924 69.0454L56.8132 61.5204C56.2007 60.4704 56.5216 59.1287 57.5424 58.4579C58.6216 57.8454 59.9632 58.1662 60.6049 59.187L65.2132 66.6829C65.3882 66.9454 65.7382 67.0329 66.0007 66.8579C69.3841 64.437 70.1424 59.887 67.5757 56.4454Z" fill="white"/>
</g>
<defs>
<filter id="filter0_d_265_20927" x="0.90332" y="0.0898438" width="55.0439" height="56.0537" filterUnits="userSpaceOnUse" color-interpolation-filters="sRGB">
<feFlood flood-opacity="0" result="BackgroundImageFix"/>
<feColorMatrix in="SourceAlpha" type="matrix" values="0 0 0 0 0 0 0 0 0 0 0 0 0 0 0 0 0 0 127 0" result="hardAlpha"/>
<feOffset/>
<feGaussianBlur stdDeviation="10"/>
<feComposite in2="hardAlpha" operator="out"/>
<feColorMatrix type="matrix" values="0 0 0 0 1 0 0 0 0 1 0 0 0 0 1 0 0 0 0.46 0"/>
<feBlend mode="normal" in2="BackgroundImageFix" result="effect1_dropShadow_265_20927"/>
<feBlend mode="normal" in="SourceGraphic" in2="effect1_dropShadow_265_20927" result="shape"/>
</filter>
<filter id="filter1_d_265_20927" x="6.42871" y="11.543" width="82.6758" height="88.3535" filterUnits="userSpaceOnUse" color-interpolation-filters="sRGB">
<feFlood flood-opacity="0" result="BackgroundImageFix"/>
<feColorMatrix in="SourceAlpha" type="matrix" values="0 0 0 0 0 0 0 0 0 0 0 0 0 0 0 0 0 0 127 0" result="hardAlpha"/>
<feOffset/>
<feGaussianBlur stdDeviation="10"/>
<feComposite in2="hardAlpha" operator="out"/>
<feColorMatrix type="matrix" values="0 0 0 0 1 0 0 0 0 1 0 0 0 0 1 0 0 0 0.46 0"/>
<feBlend mode="normal" in2="BackgroundImageFix" result="effect1_dropShadow_265_20927"/>
<feBlend mode="normal" in="SourceGraphic" in2="effect1_dropShadow_265_20927" result="shape"/>
</filter>
</defs>
</svg>
