<svg width="102" height="88" viewBox="0 0 102 88" fill="none" xmlns="http://www.w3.org/2000/svg">
<g filter="url(#filter0_d_265_20924)">
<path d="M61.8869 24.1953L65.9994 32.4203C66.5535 33.5578 68.041 34.6369 69.2952 34.8703L76.7327 36.0953C81.4869 36.8828 82.5952 40.3244 79.1827 43.7661L73.3785 49.5703C72.416 50.5328 71.8619 52.4286 72.1827 53.7994L73.8452 60.9744C75.1577 66.6328 72.1244 68.8494 67.1369 65.8744L60.166 61.7328C58.9119 60.9744 56.8119 60.9744 55.5577 61.7328L48.5869 65.8744C43.5994 68.8203 40.566 66.6328 41.8785 60.9744L43.5411 53.7994C43.8036 52.3994 43.2494 50.5036 42.2869 49.5411L36.4827 43.7369C33.0702 40.3244 34.1786 36.8828 38.9327 36.0661L46.3702 34.8411C47.6244 34.6369 49.1119 33.5286 49.666 32.3911L53.7785 24.1661C56.0244 19.7328 59.641 19.7328 61.8869 24.1953Z" fill="white"/>
</g>
<g filter="url(#filter1_d_265_20924)">
<path d="M40.333 25.7705H22.833C21.6372 25.7705 20.6455 24.7788 20.6455 23.583C20.6455 22.3872 21.6372 21.3955 22.833 21.3955H40.333C41.5288 21.3955 42.5205 22.3872 42.5205 23.583C42.5205 24.7788 41.5288 25.7705 40.333 25.7705Z" fill="white"/>
</g>
<g filter="url(#filter2_d_265_20924)">
<path d="M31.583 66.6045H22.833C21.6372 66.6045 20.6455 65.6128 20.6455 64.417C20.6455 63.2212 21.6372 62.2295 22.833 62.2295H31.583C32.7788 62.2295 33.7705 63.2212 33.7705 64.417C33.7705 65.6128 32.7788 66.6045 31.583 66.6045Z" fill="white"/>
</g>
<g filter="url(#filter3_d_265_20924)">
<path d="M25.7497 46.1875H22.833C21.6372 46.1875 20.6455 45.1958 20.6455 44C20.6455 42.8042 21.6372 41.8125 22.833 41.8125H25.7497C26.9455 41.8125 27.9372 42.8042 27.9372 44C27.9372 45.1958 26.9455 46.1875 25.7497 46.1875Z" fill="white"/>
</g>
<defs>
<filter id="filter0_d_265_20924" x="14.501" y="0.844727" width="86.6631" height="86.3525" filterUnits="userSpaceOnUse" color-interpolation-filters="sRGB">
<feFlood flood-opacity="0" result="BackgroundImageFix"/>
<feColorMatrix in="SourceAlpha" type="matrix" values="0 0 0 0 0 0 0 0 0 0 0 0 0 0 0 0 0 0 127 0" result="hardAlpha"/>
<feOffset/>
<feGaussianBlur stdDeviation="10"/>
<feComposite in2="hardAlpha" operator="out"/>
<feColorMatrix type="matrix" values="0 0 0 0 1 0 0 0 0 1 0 0 0 0 1 0 0 0 0.46 0"/>
<feBlend mode="normal" in2="BackgroundImageFix" result="effect1_dropShadow_265_20924"/>
<feBlend mode="normal" in="SourceGraphic" in2="effect1_dropShadow_265_20924" result="shape"/>
</filter>
<filter id="filter1_d_265_20924" x="0.645508" y="1.39551" width="61.875" height="44.375" filterUnits="userSpaceOnUse" color-interpolation-filters="sRGB">
<feFlood flood-opacity="0" result="BackgroundImageFix"/>
<feColorMatrix in="SourceAlpha" type="matrix" values="0 0 0 0 0 0 0 0 0 0 0 0 0 0 0 0 0 0 127 0" result="hardAlpha"/>
<feOffset/>
<feGaussianBlur stdDeviation="10"/>
<feComposite in2="hardAlpha" operator="out"/>
<feColorMatrix type="matrix" values="0 0 0 0 1 0 0 0 0 1 0 0 0 0 1 0 0 0 0.46 0"/>
<feBlend mode="normal" in2="BackgroundImageFix" result="effect1_dropShadow_265_20924"/>
<feBlend mode="normal" in="SourceGraphic" in2="effect1_dropShadow_265_20924" result="shape"/>
</filter>
<filter id="filter2_d_265_20924" x="0.645508" y="42.2295" width="53.125" height="44.375" filterUnits="userSpaceOnUse" color-interpolation-filters="sRGB">
<feFlood flood-opacity="0" result="BackgroundImageFix"/>
<feColorMatrix in="SourceAlpha" type="matrix" values="0 0 0 0 0 0 0 0 0 0 0 0 0 0 0 0 0 0 127 0" result="hardAlpha"/>
<feOffset/>
<feGaussianBlur stdDeviation="10"/>
<feComposite in2="hardAlpha" operator="out"/>
<feColorMatrix type="matrix" values="0 0 0 0 1 0 0 0 0 1 0 0 0 0 1 0 0 0 0.46 0"/>
<feBlend mode="normal" in2="BackgroundImageFix" result="effect1_dropShadow_265_20924"/>
<feBlend mode="normal" in="SourceGraphic" in2="effect1_dropShadow_265_20924" result="shape"/>
</filter>
<filter id="filter3_d_265_20924" x="0.645508" y="21.8125" width="47.292" height="44.375" filterUnits="userSpaceOnUse" color-interpolation-filters="sRGB">
<feFlood flood-opacity="0" result="BackgroundImageFix"/>
<feColorMatrix in="SourceAlpha" type="matrix" values="0 0 0 0 0 0 0 0 0 0 0 0 0 0 0 0 0 0 127 0" result="hardAlpha"/>
<feOffset/>
<feGaussianBlur stdDeviation="10"/>
<feComposite in2="hardAlpha" operator="out"/>
<feColorMatrix type="matrix" values="0 0 0 0 1 0 0 0 0 1 0 0 0 0 1 0 0 0 0.46 0"/>
<feBlend mode="normal" in2="BackgroundImageFix" result="effect1_dropShadow_265_20924"/>
<feBlend mode="normal" in="SourceGraphic" in2="effect1_dropShadow_265_20924" result="shape"/>
</filter>
</defs>
</svg>
