<svg width="93" height="100" viewBox="0 0 93 100" fill="none" xmlns="http://www.w3.org/2000/svg">
<g filter="url(#filter0_d_265_20930)">
<path d="M65.4626 31.5372L31.2209 65.7788C29.9376 67.0622 27.7792 66.8872 26.7292 65.3705C23.1126 60.0913 20.9834 53.8497 20.9834 47.433V34.6288C20.9834 32.2372 22.7917 29.5247 25.0084 28.6205L41.2542 21.9705C44.9292 20.4538 49.0126 20.4538 52.6876 21.9705L64.5001 26.783C66.4251 27.5705 66.9209 30.0788 65.4626 31.5372Z" fill="white"/>
</g>
<g filter="url(#filter1_d_265_20930)">
<path d="M68.2039 35.5337C70.0997 33.9296 72.9872 35.3004 72.9872 37.7796V47.4337C72.9872 61.6962 62.633 75.0546 48.4872 78.9629C47.5247 79.2254 46.4747 79.2254 45.483 78.9629C41.3414 77.7962 37.4914 75.8421 34.1955 73.2754C32.7955 72.1962 32.6497 70.1546 33.8747 68.9004C40.233 62.3962 58.8414 43.4379 68.2039 35.5337Z" fill="white"/>
</g>
<defs>
<filter id="filter0_d_265_20930" x="0.983398" y="0.833008" width="85.3252" height="85.8027" filterUnits="userSpaceOnUse" color-interpolation-filters="sRGB">
<feFlood flood-opacity="0" result="BackgroundImageFix"/>
<feColorMatrix in="SourceAlpha" type="matrix" values="0 0 0 0 0 0 0 0 0 0 0 0 0 0 0 0 0 0 127 0" result="hardAlpha"/>
<feOffset/>
<feGaussianBlur stdDeviation="10"/>
<feComposite in2="hardAlpha" operator="out"/>
<feColorMatrix type="matrix" values="0 0 0 0 1 0 0 0 0 1 0 0 0 0 1 0 0 0 0.46 0"/>
<feBlend mode="normal" in2="BackgroundImageFix" result="effect1_dropShadow_265_20930"/>
<feBlend mode="normal" in="SourceGraphic" in2="effect1_dropShadow_265_20930" result="shape"/>
</filter>
<filter id="filter1_d_265_20930" x="13.043" y="14.8428" width="79.9443" height="84.3174" filterUnits="userSpaceOnUse" color-interpolation-filters="sRGB">
<feFlood flood-opacity="0" result="BackgroundImageFix"/>
<feColorMatrix in="SourceAlpha" type="matrix" values="0 0 0 0 0 0 0 0 0 0 0 0 0 0 0 0 0 0 127 0" result="hardAlpha"/>
<feOffset/>
<feGaussianBlur stdDeviation="10"/>
<feComposite in2="hardAlpha" operator="out"/>
<feColorMatrix type="matrix" values="0 0 0 0 1 0 0 0 0 1 0 0 0 0 1 0 0 0 0.46 0"/>
<feBlend mode="normal" in2="BackgroundImageFix" result="effect1_dropShadow_265_20930"/>
<feBlend mode="normal" in="SourceGraphic" in2="effect1_dropShadow_265_20930" result="shape"/>
</filter>
</defs>
</svg>
